<svg xmlns="http://www.w3.org/2000/svg" version="1.1" xmlns:xlink="http://www.w3.org/1999/xlink" xmlns:svgjs="http://svgjs.com/svgjs" width="1440" height="560" preserveAspectRatio="none" viewBox="0 0 1440 560"><g mask="url(&quot;#SvgjsMask1444&quot;)" fill="none"><rect width="1440" height="560" x="0" y="0" fill="url(#SvgjsLinearGradient1445)"></rect><path d="M1440 0L1287.6 0L1440 98.46z" fill="rgba(255, 255, 255, .1)"></path><path d="M1287.6 0L1440 98.46L1440 344.4L1224.56 0z" fill="rgba(255, 255, 255, .075)"></path><path d="M1224.56 0L1440 344.4L1440 424.4L1084.08 0z" fill="rgba(255, 255, 255, .05)"></path><path d="M1084.08 0L1440 424.4L1440 458.97999999999996L643.6599999999999 0z" fill="rgba(255, 255, 255, .025)"></path><path d="M0 560L363.88 560L0 434.06z" fill="rgba(0, 0, 0, .1)"></path><path d="M0 434.06L363.88 560L527.84 560L0 281.99z" fill="rgba(0, 0, 0, .075)"></path><path d="M0 281.99L527.84 560L970.53 560L0 201.12z" fill="rgba(0, 0, 0, .05)"></path><path d="M0 201.12L970.53 560L1230.13 560L0 92.32000000000001z" fill="rgba(0, 0, 0, .025)"></path></g><defs><mask id="SvgjsMask1444"><rect width="1440" height="560" fill="#ffffff"></rect></mask><linearGradient x1="84.72%" y1="-39.29%" x2="15.28%" y2="139.29%" gradientUnits="userSpaceOnUse" id="SvgjsLinearGradient1445"><stop stop-color="rgba(243, 243, 243, 1)" offset="0"></stop><stop stop-color="rgba(243, 243, 243, 1)" offset="1"></stop></linearGradient></defs></svg>